<svg xmlns="http://www.w3.org/2000/svg" viewBox="0 0 512 512">
  <defs>
    <linearGradient id="bgGrad" x1="0%" y1="0%" x2="100%" y2="100%">
      <stop offset="0%" style="stop-color:#0f172a"/>
      <stop offset="100%" style="stop-color:#1e293b"/>
    </linearGradient>
    <linearGradient id="leafGrad" x1="0%" y1="0%" x2="100%" y2="100%">
      <stop offset="0%" style="stop-color:#10b981"/>
      <stop offset="100%" style="stop-color:#059669"/>
    </linearGradient>
    <linearGradient id="stemGrad" x1="0%" y1="0%" x2="0%" y2="100%">
      <stop offset="0%" style="stop-color:#10b981"/>
      <stop offset="100%" style="stop-color:#047857"/>
    </linearGradient>
    <filter id="glow">
      <feGaussianBlur stdDeviation="8" result="coloredBlur"/>
      <feMerge>
        <feMergeNode in="coloredBlur"/>
        <feMergeNode in="SourceGraphic"/>
      </feMerge>
    </filter>
  </defs>

  <!-- Background -->
  <rect width="512" height="512" rx="96" fill="url(#bgGrad)"/>

  <!-- Glow effect -->
  <g filter="url(#glow)" opacity="0.6">
    <ellipse cx="256" cy="380" rx="80" ry="20" fill="#10b981"/>
  </g>

  <!-- Soil/Ground -->
  <ellipse cx="256" cy="400" rx="120" ry="30" fill="#374151"/>
  <ellipse cx="256" cy="395" rx="100" ry="22" fill="#4b5563"/>

  <!-- Stem -->
  <path d="M256 395 Q256 300 256 220" stroke="url(#stemGrad)" stroke-width="16" fill="none" stroke-linecap="round"/>

  <!-- Left leaf -->
  <path d="M256 280 Q200 240 180 180 Q220 200 256 240" fill="url(#leafGrad)"/>
  <path d="M256 280 Q220 260 200 220" stroke="#059669" stroke-width="2" fill="none"/>

  <!-- Right leaf -->
  <path d="M256 260 Q312 220 332 160 Q292 180 256 220" fill="url(#leafGrad)"/>
  <path d="M256 260 Q292 240 312 200" stroke="#059669" stroke-width="2" fill="none"/>

  <!-- Top leaf (main) -->
  <path d="M256 220 Q256 140 256 100 Q300 140 300 180 Q280 160 256 180 Q232 160 212 180 Q212 140 256 100" fill="url(#leafGrad)"/>
  <path d="M256 180 L256 120" stroke="#059669" stroke-width="2" fill="none"/>

  <!-- Sparkles -->
  <circle cx="160" cy="140" r="4" fill="#fbbf24"/>
  <circle cx="352" cy="120" r="3" fill="#fbbf24"/>
  <circle cx="140" cy="280" r="3" fill="#fbbf24"/>
  <circle cx="372" cy="260" r="4" fill="#fbbf24"/>
  <circle cx="320" cy="340" r="3" fill="#fbbf24"/>
  <circle cx="192" cy="360" r="3" fill="#fbbf24"/>
</svg>
