<svg xmlns="http://www.w3.org/2000/svg" viewBox="0 0 100 100">
  <defs>
    <linearGradient id="leafGrad" x1="0%" y1="0%" x2="100%" y2="100%">
      <stop offset="0%" style="stop-color:#22c55e"/>
      <stop offset="100%" style="stop-color:#16a34a"/>
    </linearGradient>
    <linearGradient id="stemGrad" x1="0%" y1="0%" x2="0%" y2="100%">
      <stop offset="0%" style="stop-color:#22c55e"/>
      <stop offset="100%" style="stop-color:#15803d"/>
    </linearGradient>
  </defs>
  <!-- Pot -->
  <path d="M30 85 L35 70 L65 70 L70 85 Z" fill="#8B4513"/>
  <ellipse cx="50" cy="70" rx="17" ry="4" fill="#A0522D"/>
  <!-- Soil -->
  <ellipse cx="50" cy="70" rx="14" ry="3" fill="#3d2914"/>
  <!-- Stem -->
  <path d="M50 70 Q50 50 50 35" stroke="url(#stemGrad)" stroke-width="4" fill="none" stroke-linecap="round"/>
  <!-- Left leaf -->
  <path d="M50 45 Q35 35 30 20 Q45 25 50 45" fill="url(#leafGrad)"/>
  <!-- Right leaf -->
  <path d="M50 35 Q65 25 75 15 Q60 30 50 35" fill="url(#leafGrad)"/>
  <!-- Small center leaf -->
  <path d="M50 35 Q50 20 55 10 Q50 25 50 35" fill="#4ade80"/>
</svg>
